<svg width="34" height="19" viewBox="0 0 34 19" fill="none" xmlns="http://www.w3.org/2000/svg">
<path d="M33.9535 5.59137C34.05 5.21151 33.9951 4.81076 33.7996 4.46779C33.3007 3.63641 32.6358 2.90782 31.8431 2.32383C31.0503 1.73985 30.1452 1.31195 29.1799 1.06472C28.2144 0.817472 27.2077 0.755734 26.2174 0.883067C25.2272 1.0104 24.2728 1.32428 23.409 1.8067L20.0995 3.6399L12.4028 0.165697C12.184 0.0568137 11.9412 0 11.6947 0C11.4483 0 11.2054 0.0568137 10.9866 0.165697L6.36861 2.7233C6.14038 2.84973 5.94977 3.0303 5.815 3.24774C5.68025 3.46517 5.60585 3.71219 5.59894 3.96514C5.59149 4.21997 5.65277 4.47232 5.77684 4.69768C5.90091 4.92305 6.08355 5.11377 6.30703 5.25134L11.3868 8.32642L8.7084 9.8048L1.35036 10.6623C1.05458 10.6973 0.775776 10.8142 0.547784 10.9986C0.319808 11.183 0.152467 11.4269 0.0660823 11.7008C-0.0203069 11.9749 -0.0220294 12.267 0.0611241 12.5419C0.144278 12.8167 0.308725 13.0626 0.534515 13.2494L5.98377 17.7733C6.70118 18.4309 7.61994 18.8491 8.60411 18.9663C9.58827 19.0834 10.5856 18.8932 11.4484 18.4238L33.1838 6.49318C33.3692 6.40082 33.5328 6.27325 33.6652 6.11823C33.7976 5.96319 33.8956 5.78394 33.9535 5.59137ZM10.0476 15.9401C9.75194 16.0964 9.41097 16.1549 9.0772 16.1069C8.74344 16.0588 8.43537 15.9067 8.20042 15.674L5.27568 13.2642L9.47807 12.7764C9.68459 12.7509 9.88358 12.6856 10.063 12.5842L15.2352 9.73088C15.4656 9.60315 15.6577 9.42027 15.7926 9.2C15.9274 8.97972 16.0005 8.72972 16.0048 8.47426C16.0081 8.22042 15.9431 7.97028 15.8164 7.74748C15.6897 7.52484 15.5055 7.33723 15.2813 7.20285L10.2016 4.11298L11.8948 3.1816L19.5915 6.61149C19.8104 6.7203 20.0531 6.77707 20.2996 6.77707C20.546 6.77707 20.7889 6.7203 21.0077 6.61149L24.9484 4.42344C25.7559 3.9888 26.6809 3.79727 27.6031 3.87372C28.5255 3.95017 29.4025 4.29107 30.1206 4.85217L10.0476 15.9401Z" fill="#0B3746" fill-opacity="0.7"/>
</svg>
